<svg xmlns="http://www.w3.org/2000/svg" viewBox="0 0 512 512" role="img" aria-labelledby="title">
  <title>Strudel Pocket</title>
  <rect width="512" height="512" rx="108" fill="#0e1116"/>
  <path d="M138 180c42-40 97-60 166-60 51 0 84 13 100 39 13 21 11 44-6 68-17 24-46 45-86 64l-66 31c-27 13-40 27-40 42 0 12 8 21 25 27 16 6 38 9 66 9 43 0 79-8 108-25" fill="none" stroke="#3fd6c0" stroke-width="38" stroke-linecap="round" stroke-linejoin="round"/>
  <path d="M111 289c20-27 48-51 84-70 36-20 75-30 117-30 33 0 57 6 73 19" fill="none" stroke="#ff7a45" stroke-width="30" stroke-linecap="round"/>
  <circle cx="145" cy="362" r="21" fill="#ff7a45"/>
  <circle cx="382" cy="149" r="18" fill="#3fd6c0"/>
</svg>
